<svg width="45" height="39" viewBox="0 0 45 39" fill="none" xmlns="http://www.w3.org/2000/svg">
<path id="icon-email" d="M38.25 0.5H6.75C4.95979 0.5 3.2429 1.25067 1.97703 2.58686C0.711159 3.92306 0 5.73533 0 7.625V31.375C0 33.2647 0.711159 35.0769 1.97703 36.4131C3.2429 37.7493 4.95979 38.5 6.75 38.5H38.25C40.0402 38.5 41.7571 37.7493 43.023 36.4131C44.2888 35.0769 45 33.2647 45 31.375V7.625C45 5.73533 44.2888 3.92306 43.023 2.58686C41.7571 1.25067 40.0402 0.5 38.25 0.5ZM36.7425 5.25L22.5 16.5312L8.2575 5.25H36.7425ZM38.25 33.75H6.75C6.15326 33.75 5.58097 33.4998 5.15901 33.0544C4.73705 32.609 4.5 32.0049 4.5 31.375V8.21875L21.15 21.4C21.5395 21.7083 22.0132 21.875 22.5 21.875C22.9868 21.875 23.4605 21.7083 23.85 21.4L40.5 8.21875V31.375C40.5 32.0049 40.2629 32.609 39.841 33.0544C39.419 33.4998 38.8467 33.75 38.25 33.75Z" fill="#367371"/>
</svg>
