<svg width="31" height="42" viewBox="0 0 31 42" fill="none" xmlns="http://www.w3.org/2000/svg">
<path id="Vector" d="M15.5 41.0346C15.0479 41.0346 14.5958 40.9462 14.1437 40.7694C13.6917 40.5926 13.288 40.3274 12.9328 39.9738C10.8339 37.8522 8.97708 35.7836 7.3625 33.7681C5.74792 31.7526 4.39974 29.7989 3.31797 27.9072C2.2362 26.0154 1.41276 24.1944 0.847656 22.444C0.282552 20.6937 0 19.023 0 17.4318C0 12.1278 1.55807 7.90222 4.67422 4.75518C7.79036 1.60813 11.399 0.0346069 15.5 0.0346069C19.601 0.0346069 23.2096 1.60813 26.3258 4.75518C29.4419 7.90222 31 12.1278 31 17.4318C31 19.023 30.7174 20.6937 30.1523 22.444C29.5872 24.1944 28.7638 26.0154 27.682 27.9072C26.6003 29.7989 25.2521 31.7526 23.6375 33.7681C22.0229 35.7836 20.1661 37.8522 18.0672 39.9738C17.712 40.3274 17.3083 40.5926 16.8562 40.7694C16.4042 40.9462 15.9521 41.0346 15.5 41.0346ZM15.5 21.2506C16.5656 21.2506 17.4779 20.8352 18.2367 20.0042C18.9956 19.1732 19.375 18.1743 19.375 17.0074C19.375 15.8406 18.9956 14.8416 18.2367 14.0107C17.4779 13.1797 16.5656 12.7642 15.5 12.7642C14.4344 12.7642 13.5221 13.1797 12.7633 14.0107C12.0044 14.8416 11.625 15.8406 11.625 17.0074C11.625 18.1743 12.0044 19.1732 12.7633 20.0042C13.5221 20.8352 14.4344 21.2506 15.5 21.2506Z" fill="#AD940B"/>
</svg>
