<svg width="52" height="50" viewBox="0 0 52 50" fill="none" xmlns="http://www.w3.org/2000/svg">
<g id="icon-maya" clip-path="url(#clip0_87_269)">
<g id="Group">
<path id="Vector" d="M36.398 1.45737H52.0099L31.1447 40.4172C31.1447 40.4172 27.6293 30.0958 26.1185 26.4124" fill="#367371"/>
<g id="Group_2">
<path id="Vector_2" d="M40.2491 49.6307H52.0099V1.45737C52 26.6321 41.5329 49.6307 40.2491 49.6307Z" fill="#367371"/>
</g>
<path id="Vector_3" d="M31.1447 40.4172H21.4379L0 1.45738C3.80175 0.968257 11.3954 0.309443 15.1576 0L31.1447 40.4172Z" fill="#367371"/>
<path id="Vector_4" d="M12.4322 25.0349C9.21307 37.8918 -0.00986675 50.01 7.92319e-06 50C10.6844 50 12.9852 48.4328 12.9852 47.6043C12.9852 47.1451 12.9852 32.801 12.9852 26.0132C12.7976 25.6938 12.6198 25.3643 12.4322 25.0349Z" fill="#367371"/>
<path id="Vector_5" d="M0 1.45737V50C5.8458 40.2376 9.25256 33.8491 12.2643 24.7454C4.83859 11.4693 0 1.45737 0 1.45737Z" fill="#367371"/>
<path id="Vector_6" d="M39.4394 47.7241L40.2491 49.6307V24.3362L39.4394 25.7037" fill="#367371"/>
<path id="Vector_7" d="M40.2097 24.3861V49.5508L40.2393 49.6307C41.0786 49.6307 52 22.3997 52 1.45737C52 1.45737 45.3346 15.5121 40.2097 24.3861Z" fill="#367371"/>
</g>
</g>
<defs>
<clipPath id="clip0_87_269">
<rect width="52" height="50" fill="white"/>
</clipPath>
</defs>
</svg>
