<svg width="40" height="50" viewBox="0 0 40 50" fill="none" xmlns="http://www.w3.org/2000/svg">
<path id="icon-figma" d="M0 41.6667C0 39.4565 1.05357 37.3369 2.92893 35.7741C4.8043 34.2113 7.34784 33.3333 10 33.3333H20V41.6667C20 43.8768 18.9464 45.9964 17.0711 47.5592C15.1957 49.122 12.6522 50 10 50C7.34784 50 4.8043 49.122 2.92893 47.5592C1.05357 45.9964 0 43.8768 0 41.6667ZM10 33.3333H20V16.6667H10C7.34784 16.6667 4.8043 17.5446 2.92893 19.1074C1.05357 20.6702 0 22.7899 0 25C0 27.2101 1.05357 29.3298 2.92893 30.8926C4.8043 32.4554 7.34784 33.3333 10 33.3333ZM10 16.6667H20V0H10C7.34784 0 4.8043 0.877973 2.92893 2.44078C1.05357 4.00358 0 6.1232 0 8.33333C0 10.5435 1.05357 12.6631 2.92893 14.2259C4.8043 15.7887 7.34784 16.6667 10 16.6667ZM20 16.6667H30C32.6522 16.6667 35.1957 15.7887 37.0711 14.2259C38.9464 12.6631 40 10.5435 40 8.33333C40 6.1232 38.9464 4.00358 37.0711 2.44078C35.1957 0.877973 32.6522 0 30 0H20V16.6667ZM30 16.6667C28.0222 16.6667 26.0888 17.1554 24.4443 18.0711C22.7998 18.9868 21.5181 20.2883 20.7612 21.811C20.0043 23.3337 19.8063 25.0092 20.1921 26.6258C20.578 28.2423 21.5304 29.7271 22.9289 30.8926C24.3275 32.058 26.1093 32.8517 28.0491 33.1732C29.9889 33.4948 31.9996 33.3297 33.8268 32.699C35.6541 32.0683 37.2159 31.0002 38.3147 29.6297C39.4135 28.2593 40 26.6482 40 25C40 22.7899 38.9464 20.6702 37.0711 19.1074C35.1957 17.5446 32.6522 16.6667 30 16.6667Z" fill="#367371"/>
</svg>
