<svg width="64" height="64" viewBox="0 0 64 64" fill="none" xmlns="http://www.w3.org/2000/svg">
<path id="icon--instagram" d="M42.24 32C42.24 34.0253 41.6394 36.0051 40.5142 37.689C39.3891 39.373 37.7898 40.6855 35.9187 41.4605C34.0476 42.2356 31.9886 42.4384 30.0023 42.0432C28.0159 41.6481 26.1913 40.6729 24.7592 39.2408C23.3271 37.8087 22.3519 35.9841 21.9568 33.9977C21.5616 32.0114 21.7644 29.9524 22.5395 28.0813C23.3145 26.2102 24.627 24.6109 26.311 23.4858C27.9949 22.3606 29.9747 21.76 32 21.76C34.7149 21.7631 37.3176 22.843 39.2373 24.7627C41.157 26.6824 42.2369 29.2851 42.24 32ZM64 17.92V46.08C63.9946 50.831 62.1049 55.3859 58.7454 58.7454C55.3859 62.1049 50.831 63.9946 46.08 64H17.92C13.169 63.9946 8.61408 62.1049 5.25459 58.7454C1.8951 55.3859 0.00538072 50.831 0 46.08V17.92C0.00538072 13.169 1.8951 8.61408 5.25459 5.25459C8.61408 1.8951 13.169 0.00538072 17.92 0H46.08C50.831 0.00538072 55.3859 1.8951 58.7454 5.25459C62.1049 8.61408 63.9946 13.169 64 17.92ZM47.36 32C47.36 28.9621 46.4591 25.9924 44.7714 23.4664C43.0836 20.9405 40.6847 18.9718 37.878 17.8092C35.0713 16.6466 31.983 16.3425 29.0034 16.9351C26.0239 17.5278 23.287 18.9907 21.1388 21.1388C18.9907 23.287 17.5278 26.0239 16.9351 29.0034C16.3425 31.983 16.6466 35.0713 17.8092 37.878C18.9718 40.6847 20.9405 43.0836 23.4664 44.7714C25.9924 46.4591 28.9621 47.36 32 47.36C36.0723 47.3554 39.9765 45.7356 42.8561 42.8561C45.7356 39.9765 47.3554 36.0723 47.36 32ZM52.48 15.36C52.48 14.6005 52.2548 13.8581 51.8328 13.2266C51.4109 12.5951 50.8112 12.1029 50.1095 11.8123C49.4078 11.5217 48.6357 11.4456 47.8909 11.5938C47.146 11.742 46.4617 12.1077 45.9247 12.6447C45.3877 13.1817 45.0219 13.866 44.8738 14.6109C44.7256 15.3557 44.8017 16.1278 45.0923 16.8295C45.3829 17.5312 45.8751 18.1309 46.5066 18.5528C47.1381 18.9748 47.8805 19.2 48.64 19.2C49.6584 19.2 50.6351 18.7954 51.3553 18.0753C52.0754 17.3552 52.48 16.3784 52.48 15.36Z" fill="#367371"/>
</svg>
