<svg width="50" height="50" viewBox="0 0 50 50" fill="none" xmlns="http://www.w3.org/2000/svg">
<rect width="50" height="50" fill="#B4B4B4"/>
<g id="Desktop" clip-path="url(#clip0_0_1)">
<g id="section__one" clip-path="url(#clip1_0_1)">
<rect width="1280" height="742" transform="translate(-93 -577)" fill="#CECDBF"/>
<g id="content">
<g id="content__left">
<g id="skills">
<g id="skills__programs">
<g id="programs__icons">
<g id="icon-photoshop">
<path id="Vector" d="M8.85417 0H41.1458C46.0417 0 50 4.05983 50 9.0812V40.9189C50 45.9402 46.0417 50 41.1458 50H8.85417C3.95833 50 0 45.9402 0 40.9189V9.0812C0 4.05983 3.95833 0 8.85417 0Z" fill="#367371"/>
<path id="Vector_2" fill-rule="evenodd" clip-rule="evenodd" d="M10.4167 14.0043V35.6384C10.4167 35.8276 10.5 35.9118 10.6667 35.9118H14.625H14.7083C14.8542 35.8907 14.9583 35.7646 14.9375 35.6174V28.8685C15.3332 28.8685 15.625 28.8685 15.8333 28.8896C16.0417 28.9106 16.375 28.9106 16.875 28.9106C18.5833 28.9106 20.1458 28.7214 21.5625 28.1957C22.9167 27.6912 24.0833 26.8081 24.9167 25.6307C25.75 24.4534 26.1667 22.9606 26.1667 21.1526C26.1667 20.2065 26 19.3024 25.6875 18.4194C25.3542 17.5153 24.8333 16.6954 24.1667 16.0226C23.375 15.2447 22.4167 14.656 21.375 14.2985C20.2083 13.8571 18.7917 13.6469 17.0833 13.6469C16.4583 13.6469 15.8333 13.6469 15.1875 13.6678C14.8757 13.678 14.5736 13.6832 14.2812 13.6883C13.968 13.6938 13.6659 13.6991 13.375 13.7099C13.1022 13.7201 12.8392 13.7253 12.5835 13.7304C12.3122 13.7358 12.0492 13.7412 11.7917 13.752C11.3125 13.773 10.9792 13.773 10.625 13.773C10.4792 13.773 10.4167 13.8571 10.4167 14.0043ZM14.9583 24.8949V17.8307C15.1042 17.8097 15.3958 17.7887 15.8125 17.8097C16.2083 17.7887 16.6875 17.7887 17.2292 17.7887C18.0833 17.7676 18.9167 17.8938 19.6875 18.2092C20.2917 18.4404 20.7917 18.8609 21.1458 19.4075C21.4792 19.9752 21.6458 20.627 21.625 21.2788C21.625 22.2038 21.4167 22.9187 20.9792 23.4443C20.5208 23.9698 19.9375 24.3693 19.2708 24.5585C18.5 24.8108 17.6875 24.937 16.875 24.937H15.7708C15.5387 24.937 15.2887 24.9189 15.0208 24.8995C15.0001 24.8979 14.9793 24.8965 14.9583 24.8949Z" fill="#CECDBF"/>
<path id="Vector_3" d="M39.1667 23.6124C38.5417 23.276 37.875 23.0448 37.1667 22.8976C36.3958 22.7294 35.625 22.6242 34.8333 22.6242C34.4167 22.6032 33.9792 22.6663 33.5833 22.7714C33.3125 22.8345 33.0833 22.9816 32.9375 23.1919C32.8333 23.3601 32.7708 23.5703 32.7708 23.7596C32.7708 23.9487 32.8542 24.138 32.9792 24.3062C33.1667 24.5375 33.4167 24.7266 33.6875 24.8738C34.1667 25.1261 34.6667 25.3574 35.1667 25.5677C36.2917 25.9461 37.375 26.4717 38.375 27.1025C39.0625 27.5439 39.625 28.1327 40.0208 28.8475C40.3542 29.5203 40.5208 30.2561 40.5 31.013C40.5208 32.0011 40.2292 32.9892 39.6875 33.8092C39.1042 34.6502 38.2917 35.302 37.3542 35.6804C36.3333 36.122 35.0833 36.3532 33.5833 36.3532C32.625 36.3532 31.6875 36.2691 30.75 36.0799C30.0208 35.9537 29.2917 35.7225 28.625 35.4071C28.4792 35.323 28.375 35.1758 28.3958 35.0077V31.3494C28.3958 31.2863 28.4167 31.2023 28.4792 31.1602C28.5417 31.1181 28.6042 31.1391 28.6667 31.1812C29.4792 31.6648 30.3333 32.0011 31.25 32.2114C32.0417 32.4216 32.875 32.5267 33.7083 32.5267C34.5 32.5267 35.0625 32.4216 35.4375 32.2324C35.7708 32.0853 36 31.7278 36 31.3494C36 31.0551 35.8333 30.7817 35.5 30.5084C35.1667 30.2351 34.4792 29.9198 33.4583 29.5203C32.3958 29.1419 31.4167 28.6373 30.5 28.0065C29.8542 27.5439 29.3125 26.9342 28.9167 26.2195C28.5833 25.5466 28.4167 24.8108 28.4375 24.0749C28.4375 23.1709 28.6875 22.3088 29.1458 21.5309C29.6667 20.69 30.4375 20.0172 31.3333 19.5967C32.3125 19.0922 33.5417 18.8608 35.0208 18.8608C35.875 18.8608 36.75 18.9239 37.6042 19.0501C38.2292 19.1341 38.8333 19.3024 39.3958 19.5336C39.4792 19.5547 39.5625 19.6387 39.6042 19.7229C39.625 19.807 39.6458 19.891 39.6458 19.9752V23.4022C39.6458 23.4862 39.6042 23.5703 39.5417 23.6124C39.3542 23.6545 39.25 23.6545 39.1667 23.6124Z" fill="#CECDBF"/>
</g>
</g>
</g>
</g>
</g>
</g>
</g>
</g>
<defs>
<clipPath id="clip0_0_1">
<rect width="1280" height="3217" fill="white" transform="translate(-93 -577)"/>
</clipPath>
<clipPath id="clip1_0_1">
<rect width="1280" height="742" fill="white" transform="translate(-93 -577)"/>
</clipPath>
</defs>
</svg>
