<svg width="46" height="46" viewBox="0 0 46 46" fill="none" xmlns="http://www.w3.org/2000/svg">
<path id="icon-phone" d="M43.6218 31.5019L39.6036 27.4837C38.4059 26.2956 36.7892 25.6257 35.1021 25.6185C33.4149 25.6113 31.7926 26.2674 30.5848 27.4454C29.9403 28.0935 29.09 28.4968 28.1803 28.5858C27.2706 28.6748 26.3584 28.444 25.6005 27.933C22.6091 25.9367 20.0394 23.3718 18.0372 20.3844C17.5353 19.618 17.3128 18.7021 17.4073 17.7908C17.5018 16.8796 17.9074 16.0288 18.5559 15.3817C19.7232 14.1728 20.3708 12.5549 20.3603 10.8744C20.3497 9.19395 19.6817 7.58437 18.4993 6.39019L14.4812 2.37203C13.2782 1.17317 11.6491 0.5 9.95076 0.5C8.25241 0.5 6.6233 1.17317 5.42032 2.37203L4.26419 3.52999C-1.763 9.55724 -1.31187 22.2291 11.2283 34.7621C18.7897 42.3254 26.4004 45.4924 32.5719 45.4924C34.3886 45.5529 36.1991 45.2512 37.8981 44.6049C39.597 43.9587 41.1503 42.9807 42.4675 41.7281L43.6254 40.5702C44.8265 39.3666 45.5007 37.7356 45.5 36.0353C45.4993 34.335 44.8238 32.7045 43.6218 31.5019ZM41.0392 37.9876L39.8813 39.1455C35.1326 43.8943 24.6507 43.0267 13.8073 32.1813C2.96378 21.3359 2.0944 10.8467 6.8431 6.09796L7.99192 4.94183C8.50918 4.42644 9.20961 4.13705 9.9398 4.13705C10.67 4.13705 11.3704 4.42644 11.8877 4.94183L15.9058 8.95999C16.4137 9.4704 16.7019 10.1591 16.7091 10.8791C16.7163 11.5991 16.4418 12.2934 15.9442 12.8138C14.71 14.0558 13.9402 15.6842 13.7636 17.4263C13.587 19.1683 14.0145 20.9181 14.9743 22.3825C17.2492 25.7868 20.1746 28.7079 23.5823 30.9777C25.0423 31.9377 26.7875 32.3677 28.5263 32.1958C30.2652 32.024 31.8924 31.2607 33.1363 30.0334C33.6557 29.5299 34.3519 29.2504 35.0753 29.2548C35.7987 29.2592 36.4914 29.5473 37.0046 30.0572L41.0228 34.0753C41.2817 34.3306 41.4877 34.6345 41.6287 34.9696C41.7698 35.3047 41.8432 35.6644 41.8448 36.028C41.8463 36.3916 41.7759 36.752 41.6376 37.0882C41.4994 37.4245 41.296 37.7302 41.0392 37.9876Z" fill="#367371"/>
</svg>
