<svg width="50" height="50" viewBox="0 0 50 50" fill="none" xmlns="http://www.w3.org/2000/svg">
<rect width="50" height="50" fill="#B4B4B4"/>
<g id="Desktop" clip-path="url(#clip0_0_1)">
<g id="section__one" clip-path="url(#clip1_0_1)">
<rect width="1280" height="742" transform="translate(-159 -577)" fill="#CECDBF"/>
<g id="content">
<g id="content__left">
<g id="skills">
<g id="skills__programs">
<g id="programs__icons">
<g id="icon-indesing">
<g id="Group">
<path id="Vector" d="M41.25 0H8.75C3.91751 0 0 4.0526 0 9.05172V40.9483C0 45.9474 3.91751 50 8.75 50H41.25C46.0825 50 50 45.9474 50 40.9483V9.05172C50 4.0526 46.0825 0 41.25 0Z" fill="#367371"/>
</g>
<path id="Vector_2" d="M18.3333 14.2241V36.7457C18.3333 36.9612 18.2396 37.069 18.0541 37.069H14.4458C14.2583 37.069 14.1666 36.9612 14.1666 36.7457V14.2241C14.161 14.1849 14.1644 14.1448 14.1764 14.1071C14.1885 14.0694 14.2089 14.0352 14.236 14.0071C14.2631 13.979 14.2962 13.9579 14.3327 13.9455C14.3691 13.933 14.4079 13.9295 14.4458 13.9353H18.0896C18.2521 13.9353 18.3333 14.0323 18.3333 14.2241ZM29.1333 37.5C26.7146 37.5 24.8541 36.7909 23.4083 35.375C21.9625 33.9591 21.2375 31.8664 21.2375 29.0948C21.2375 26.5761 22.0146 24.5072 23.5687 22.8879C24.3645 22.0371 25.321 21.3647 26.3786 20.9124C27.4362 20.4601 28.5724 20.2375 29.7166 20.2586C30.2284 20.2492 30.7392 20.3057 31.2375 20.4267V13.1336C31.2337 13.1063 31.2361 13.0784 31.2445 13.0522C31.2529 13.026 31.267 13.0022 31.2857 12.9826C31.3045 12.963 31.3274 12.9481 31.3526 12.9392C31.3779 12.9302 31.4048 12.9274 31.4312 12.931H35.2416C35.35 12.931 35.4042 12.9978 35.4042 13.1336V33.5539C35.4042 34.4159 35.7646 35.1509 35.8208 35.7802C35.8323 35.8425 35.8223 35.907 35.7927 35.9625C35.763 36.018 35.7154 36.061 35.6583 36.0841C33.7875 37.028 31.3354 37.5 29.1333 37.5ZM31.2375 34.1616V23.7371C31.1021 23.4914 30.3854 23.2759 29.6521 23.2759C29.0448 23.2597 28.4418 23.3839 27.8868 23.6392C27.3318 23.8946 26.8388 24.2748 26.4437 24.7522C25.4829 25.9163 24.9645 27.4025 24.9854 28.9332C24.9854 30.8211 25.6104 32.1142 26.4271 33.0129C26.8126 33.4707 27.2878 33.8385 27.8212 34.0919C28.3546 34.3453 28.9339 34.4785 29.5208 34.4828C30.3 34.4828 31.0604 34.3621 31.2375 34.1616Z" fill="#CECDBF"/>
</g>
</g>
</g>
</g>
</g>
</g>
</g>
</g>
<defs>
<clipPath id="clip0_0_1">
<rect width="1280" height="3217" fill="white" transform="translate(-159 -577)"/>
</clipPath>
<clipPath id="clip1_0_1">
<rect width="1280" height="742" fill="white" transform="translate(-159 -577)"/>
</clipPath>
</defs>
</svg>
