<svg width="48" height="50" viewBox="0 0 48 50" fill="none" xmlns="http://www.w3.org/2000/svg">
<rect width="48" height="50" fill="#B4B4B4"/>
<g id="Desktop" clip-path="url(#clip0_0_1)">
<g id="section__one" clip-path="url(#clip1_0_1)">
<rect width="1280" height="742" transform="translate(-225 -577)" fill="#CECDBF"/>
<g id="content">
<g id="content__left">
<g id="skills">
<g id="skills__programs">
<g id="programs__icons">
<path id="icon-vscode" d="M46.296 5.2817L36.408 0.251555C36.0418 0.0952736 35.6514 0.0100533 35.2561 4.74865e-05H35.064C34.4403 -0.00364882 33.8329 0.208537 33.3361 0.603665L33.0001 0.905474L14.0881 18.9889L5.85615 12.5754C5.48532 12.2781 5.02662 12.1268 4.56016 12.1479C4.10318 12.1424 3.65685 12.2924 3.28816 12.5754L0.648169 15.0905C0.441178 15.2823 0.276129 15.5187 0.164296 15.7834C0.0524629 16.0482 -0.00351984 16.3352 0.000171355 16.6247C-0.000821868 16.9175 0.0562684 17.2073 0.167819 17.4757C0.27937 17.7442 0.442946 17.9854 0.648169 18.184L7.84814 24.9999L0.648169 31.8409C0.445377 32.0386 0.283638 32.278 0.173044 32.5441C0.0624497 32.8102 0.0053721 33.0974 0.0053721 33.3877C0.0053721 33.6779 0.0624497 33.9651 0.173044 34.2312C0.283638 34.4973 0.445377 34.7367 0.648169 34.9344L3.28816 37.4495C3.68624 37.8144 4.19934 38.0116 4.72815 38.0028C5.13434 37.9708 5.52442 37.823 5.85615 37.5753L14.0881 31.0109L33.0001 49.0943C33.4839 49.6168 34.1317 49.9384 34.8241 49.9997H35.232C35.6422 50.0061 36.0471 49.9022 36.408 49.6979L46.296 44.6678C46.7963 44.4168 47.2205 44.0254 47.5213 43.537C47.8221 43.0486 47.9878 42.4823 48 41.9012V8.12374C47.9984 7.53034 47.8378 6.94934 47.5365 6.44689C47.2353 5.94444 46.8055 5.54072 46.296 5.2817ZM36 36.3932L21.6001 24.9999L36 13.6066V36.3932Z" fill="#367371"/>
</g>
</g>
</g>
</g>
</g>
</g>
</g>
<defs>
<clipPath id="clip0_0_1">
<rect width="1280" height="3217" fill="white" transform="translate(-225 -577)"/>
</clipPath>
<clipPath id="clip1_0_1">
<rect width="1280" height="742" fill="white" transform="translate(-225 -577)"/>
</clipPath>
</defs>
</svg>
