<svg width="64" height="64" viewBox="0 0 64 64" fill="none" xmlns="http://www.w3.org/2000/svg">
<g id="icon--behance">
<g clip-path="url(#clip0_1_216)">
<g id="Group">
<g id="Group_2">
<path id="Vector" d="M24.4542 34.5079C23.6779 34.1502 22.5865 33.9713 21.1863 33.9551H14.1649V42.6775H21.0745C22.4951 42.6775 23.5946 42.4906 24.3892 42.1024C25.8178 41.3911 26.5373 40.0315 26.5373 38.0176C26.5373 36.3166 25.8443 35.144 24.4542 34.5079Z" fill="#367371"/>
<path id="Vector_2" d="M24.5436 27.7302C25.4277 27.1916 25.8666 26.2344 25.8666 24.8545C25.8666 23.3324 25.2854 22.3223 24.1128 21.8366C23.1048 21.5013 21.8143 21.3265 20.2515 21.3265H14.1649V28.5431H21.0847C22.5053 28.5411 23.6576 28.2708 24.5436 27.7302Z" fill="#367371"/>
<path id="Vector_3" d="M45.7584 28.3318C44.1834 28.3318 42.964 28.787 42.0983 29.6751C41.2305 30.5673 40.6899 31.7744 40.4664 33.3027H51.024C50.9041 31.6789 50.3615 30.4433 49.3819 29.604C48.4125 28.7565 47.2033 28.3318 45.7584 28.3318Z" fill="#367371"/>
<path id="Vector_4" d="M0 0V64H64V0H0ZM39.119 17.0019H52.2901V20.2738H39.119V17.0019ZM31.9756 43.7018C31.3537 44.722 30.5835 45.5796 29.6588 46.2746C28.6163 47.0753 27.3847 47.624 25.9682 47.9167C24.5477 48.2134 23.0072 48.3597 21.353 48.3597H6.61705V15.6484H22.4179C26.3971 15.7074 29.2219 16.8617 30.8884 19.1317C31.8903 20.5238 32.3841 22.1882 32.3841 24.123C32.3841 26.1288 31.8821 27.7262 30.8701 28.9394C30.3112 29.6243 29.48 30.2421 28.3805 30.801C30.045 31.4147 31.307 32.3678 32.1504 33.6929C32.9999 35.0057 33.4246 36.6092 33.4246 38.4809C33.4266 40.4237 32.9511 42.1654 31.9756 43.7018ZM57.3789 37.3469H40.316C40.4115 39.7023 41.2224 41.3484 42.7669 42.2934C43.6957 42.8848 44.8236 43.1713 46.1425 43.1713C47.5387 43.1713 48.6645 42.8198 49.5425 42.1003C50.018 41.7183 50.4347 41.1757 50.7984 40.4928H57.0517C56.8891 41.8849 56.1372 43.2912 54.7817 44.7281C52.6884 47.0062 49.7477 48.1504 45.9718 48.1504C42.8502 48.1504 40.1026 47.181 37.7168 45.2646C35.339 43.3421 34.14 40.2144 34.14 35.8796C34.14 31.8171 35.213 28.7037 37.3652 26.5373C39.5255 24.3709 42.3137 23.2897 45.7483 23.2897C47.7866 23.2897 49.6197 23.6535 51.2597 24.381C52.8917 25.1167 54.2411 26.2711 55.2999 27.8522C56.2652 29.2483 56.879 30.8599 57.1716 32.7032C57.3382 33.766 57.4094 35.3187 57.3789 37.3469Z" fill="#367371"/>
</g>
</g>
</g>
</g>
<defs>
<clipPath id="clip0_1_216">
<rect width="64" height="64" rx="5" fill="white"/>
</clipPath>
</defs>
</svg>
