<svg width="60" height="50" viewBox="0 0 60 50" fill="none" xmlns="http://www.w3.org/2000/svg">
<path id="icon-blender" d="M59.8241 27.8431C59.4721 25.306 58.6141 22.8999 57.2732 20.6926C56.1039 18.7661 54.6034 17.0527 52.8125 15.5965L52.8173 15.5919L34.0078 0.795164C33.9942 0.782936 33.9801 0.771417 33.9654 0.76065C33.34 0.269986 32.4933 0 31.5822 0C30.6698 0 29.79 0.270587 29.1061 0.762213C28.3707 1.28835 27.9504 1.98647 27.921 2.72956C27.8941 3.42286 28.217 4.08995 28.8326 4.60996C30.0432 5.58828 31.251 6.58789 32.4606 7.5887C33.6344 8.56041 34.8439 9.5611 36.0475 10.5353L13.0089 10.5193C10.3742 10.5193 8.58017 11.7865 8.21113 13.908C8.04898 14.8373 8.33512 15.859 8.9748 16.6416C9.65347 17.4711 10.6388 17.9287 11.7492 17.9287L13.5056 17.9299C15.9318 17.9299 18.3688 17.9238 20.8025 17.9178L23.1234 17.9122L2.21385 33.7564L2.13084 33.8185C0.962895 34.7354 0.198279 36.0209 0.0333089 37.3451C-0.0917396 38.3483 0.136753 39.265 0.694363 39.9972C1.35894 40.87 2.39655 41.3501 3.61627 41.3501C4.81451 41.3501 6.03716 40.8851 7.06056 40.0383L18.352 30.5738C18.3038 31.0359 18.2452 31.714 18.2519 32.2061C18.2646 32.9853 18.5088 34.5487 18.8954 35.8179C19.6943 38.4263 21.04 40.8129 22.895 42.9088C24.8251 45.0894 27.1758 46.8184 29.8813 48.0466C32.7415 49.3423 35.8163 50 39.0205 50H39.0502C42.2646 49.9921 45.3491 49.3239 48.2187 48.0134C50.9286 46.7706 53.2783 45.0347 55.2011 42.8545C57.0537 40.7479 58.3975 38.3573 59.1949 35.751C59.5893 34.4608 59.842 33.1296 59.9482 31.782C60.0467 30.4796 60.0043 29.1543 59.8241 27.8431ZM39.2547 40.3453C32.1932 40.3453 26.4668 35.0987 26.4668 28.6263C26.4668 22.1546 32.1933 16.9079 39.2547 16.9079C46.3164 16.9079 52.0422 22.1546 52.0422 28.6263C52.0424 35.0987 46.3164 40.3453 39.2547 40.3453ZM46.6293 27.5965C46.7335 29.5282 45.9801 31.3219 44.6572 32.6497C43.3115 34.0024 41.3912 34.8521 39.2439 34.8521C37.0976 34.8521 35.177 34.0024 33.8308 32.6497C32.5085 31.3219 31.7566 29.5285 31.8602 27.5981C31.9617 25.7216 32.8553 24.0653 34.2014 22.8925C35.525 21.7393 37.3023 21.0358 39.2438 21.0358C41.1855 21.0358 42.9624 21.7395 44.2861 22.8925C45.6329 24.0653 46.5268 25.7204 46.6293 27.5965Z" fill="#367371"/>
</svg>
