<svg width="50" height="50" viewBox="0 0 50 50" fill="none" xmlns="http://www.w3.org/2000/svg">
<g id="icon-illustrator" clip-path="url(#clip0_62_35)">
<g id="Layer_2_1_">
<g id="Surfaces">
<g id="Drawing_Surface">
<g id="Outline_no_shadow">
<path id="Vector" d="M8.85417 0H41.1458C46.0417 0 50 4.05983 50 9.0812V40.9188C50 45.9402 46.0417 50 41.1458 50H8.85417C3.95833 50 0 45.9402 0 40.9188V9.0812C0 4.05983 3.95833 0 8.85417 0Z" fill="#367371"/>
</g>
</g>
</g>
<g id="Outlined_Mnemonics_Logos">
<g id="Ai">
<path id="Vector_2" d="M24.2292 30H16.4792L14.8958 35.0214C14.8542 35.2137 14.6875 35.3419 14.5 35.3205H10.5833C10.3542 35.3205 10.2917 35.1923 10.3542 34.9359L17.0625 15.1282C17.125 14.9145 17.1875 14.6795 17.2708 14.4231C17.3542 13.9744 17.3958 13.5043 17.3958 13.0342C17.375 12.9274 17.4583 12.8205 17.5625 12.7992C17.5833 12.7992 17.6042 12.7992 17.625 12.7992H22.9583C23.125 12.7992 23.2083 12.8633 23.2292 12.9701L30.8333 34.9787C30.8958 35.2137 30.8333 35.3205 30.625 35.3205H26.2708C26.125 35.3419 25.9792 35.2351 25.9375 35.0855L24.2292 30ZM17.6875 25.6624H22.9792C22.8542 25.2137 22.6875 24.6795 22.5 24.124C22.3125 23.547 22.125 22.9274 21.9375 22.2863C21.7292 21.624 21.5417 20.9829 21.3333 20.3205C21.125 19.6581 20.9375 19.0385 20.7708 18.4188C20.6042 17.8205 20.4583 17.265 20.3125 16.7522H20.2708C20.0833 17.671 19.8542 18.5898 19.5625 19.5086C19.25 20.5342 18.9375 21.6026 18.6042 22.671C18.3125 23.7607 18 24.765 17.6875 25.6624Z" fill="#CECDBF"/>
<path id="Vector_3" d="M35.375 16.453C34.6875 16.4744 34.0208 16.1966 33.5208 15.7051C33.0416 15.1709 32.7917 14.4658 32.8125 13.7393C32.7917 13.0128 33.0625 12.3291 33.5625 11.8376C34.0625 11.3462 34.7292 11.0898 35.4167 11.0898C36.2292 11.0898 36.8542 11.3462 37.3125 11.8376C37.7708 12.3504 38.0208 13.0342 38 13.7393C38.0208 14.4658 37.7708 15.1709 37.2708 15.7051C36.7916 16.218 36.0833 16.4957 35.375 16.453ZM33.0417 35V18.547C33.0417 18.3333 33.125 18.2479 33.3125 18.2479H37.4375C37.625 18.2479 37.7083 18.3547 37.7083 18.547V35C37.7083 35.2351 37.625 35.3419 37.4375 35.3419H33.3542C33.1458 35.3419 33.0417 35.2137 33.0417 35Z" fill="#CECDBF"/>
</g>
</g>
</g>
</g>
<defs>
<clipPath id="clip0_62_35">
<rect width="50" height="50" fill="white"/>
</clipPath>
</defs>
</svg>
