<svg width="50" height="50" viewBox="0 0 50 50" fill="none" xmlns="http://www.w3.org/2000/svg">
<path id="icon-notion" fill-rule="evenodd" clip-rule="evenodd" d="M0.394713 38.8947C0.394713 38.8947 7.7382 48.1527 8.17881 48.5634C9.24362 49.5544 10.6848 50.0722 12.1535 49.9919C19.8366 49.6169 37.4334 48.7598 44.8045 48.4027C47.6593 48.2599 49.899 45.9744 49.9082 43.1978L50 11.5043C50 9.72766 49.0545 8.08496 47.5032 7.15647C44.7586 5.51376 39.3244 2.25513 37.6813 1.19273C36.3411 0.326734 34.7439 -0.0839429 33.1283 0.0142624C27.6574 0.353517 11.6027 1.36235 4.80999 1.78196C2.0929 1.95159 0 4.12103 0 6.72794V37.7787C0 38.1804 0.13769 38.5733 0.394713 38.8857V38.8947ZM46.3007 13.0845V13.1024L46.2089 43.1889C46.2089 44.0549 45.5021 44.7691 44.6117 44.8138L11.9607 46.4029C11.5017 46.4297 11.052 46.2601 10.7215 45.9565C10.391 45.653 10.1983 45.2244 10.1983 44.7781V14.9236C10.1983 14.0576 10.8867 13.3434 11.7771 13.2988L44.5199 11.4597C44.9789 11.4329 45.4287 11.5936 45.7683 11.906C46.0988 12.2096 46.2915 12.6381 46.2915 13.0845H46.3007ZM35.3038 32.2078V19.9589C34.7255 19.3161 33.8076 19.3607 32.4858 18.9679C32.394 18.9411 32.3114 18.8697 32.2746 18.7804C32.2379 18.6911 32.2471 18.584 32.3022 18.5037C33.881 16.2449 38.3881 17.6555 41.3255 16.7538C41.4081 16.727 41.5091 16.736 41.5825 16.7985C41.656 16.8609 41.6835 16.9502 41.6651 17.0395C41.3806 18.2805 40.38 18.9143 38.9572 19.1822V39.3321C38.9572 40.0017 38.5442 40.6177 37.9016 40.8677C37.3141 41.0998 36.6991 41.3498 36.6991 41.3498C35.2855 42.064 33.5506 41.6087 32.6877 40.3052L22.1682 24.3513V38.8768C22.7373 39.5196 23.6644 39.475 24.9862 39.8678C25.078 39.8946 25.1606 39.966 25.1974 40.0553C25.2341 40.1445 25.2249 40.2517 25.1698 40.332C23.5818 42.5908 19.0839 41.1802 16.1465 42.0819C16.0639 42.1176 15.9629 42.0997 15.8895 42.0372C15.816 41.9837 15.7885 41.8855 15.8069 41.7962C16.0914 40.5552 17.092 39.9214 18.5148 39.6535V20.6285L15.7426 20.3696C15.7426 20.3696 15.9354 18.1823 18.579 17.9323C19.8825 17.8073 23.288 17.6644 24.5181 17.6109C24.7935 17.602 25.0597 17.7269 25.2249 17.9501L35.313 32.1899L35.3038 32.2078ZM9.41803 9.18307C9.92289 9.55804 10.5563 9.74552 11.1896 9.70981C15.8619 9.4509 35.8087 8.34386 40.7564 8.0671C40.9124 8.05817 41.0409 7.95104 41.0777 7.8082C41.1144 7.66535 41.0501 7.51358 40.9216 7.43323C38.7277 6.10299 36.5706 4.79954 35.6343 4.19245C34.9642 3.76392 34.1656 3.55858 33.3578 3.60322C33.3578 3.60322 10.6848 4.8174 6.02166 5.30842C5.43418 5.37092 5.30567 5.57626 5.28731 5.65661C5.2047 5.93337 5.30567 6.13871 5.53516 6.31726C6.47145 7.01363 8.35322 8.39743 9.41803 9.18307Z" fill="#367371"/>
</svg>
