<svg width="64" height="64" viewBox="0 0 64 64" fill="none" xmlns="http://www.w3.org/2000/svg">
<path id="icon--github" d="M32 0C14.3274 0 0 14.3274 0 32C0 47.1102 10.4763 59.7662 24.56 63.1212C23.8314 62.9477 23.1089 62.7532 22.4 62.5317V55.2C22.4 55.2 21.2 55.6 19.6 55.6C15.1237 55.6 13.264 51.6062 12.8 49.6C12.5182 48.3778 11.7822 47.2197 10.992 46.512C10.048 45.6702 9.60615 45.6677 9.6 45.3797C9.58769 44.7754 10.4098 44.8 10.8 44.8C12.8 44.8 14.3163 46.928 15.0203 48.0283C16.7643 50.7446 18.6363 51.2 19.6 51.2C20.8 51.2 21.8363 51.0203 22.5502 50.6757C22.88 48.352 23.9138 46.2818 25.6 44.8C18.096 43.2997 12.8 38.9957 12.8 32C12.8 28.3963 14.2462 25.0843 16.656 22.4098C16.4098 21.712 16 20.3003 16 18C16 16.48 16.1058 14.6142 16.8 12.8C16.8 12.8 21.3637 12.832 25.6677 16.9083C27.6542 16.3298 29.7797 16 32 16C34.2203 16 36.3458 16.3298 38.3323 16.9083C42.6363 12.832 47.2 12.8 47.2 12.8C47.8978 14.6142 48 16.48 48 18C48 20.48 47.6702 21.9262 47.4683 22.5502C49.8043 25.2 51.2 28.4603 51.2 32C51.2 38.9957 45.904 43.2997 38.4 44.8C40.4037 46.56 41.6 49.1237 41.6 52V62.5317C40.8911 62.7545 40.1698 62.9477 39.44 63.1212C53.5237 59.7662 64 47.1102 64 32C64 14.3274 49.6726 0 32 0ZM34.2314 63.9138C33.4942 63.9655 32.7508 64 32 64C32.7508 64 33.4929 63.9643 34.2314 63.9138ZM32 64C31.2492 64 30.5058 63.9655 29.7686 63.9138C30.5071 63.9643 31.2492 64 32 64ZM29.2775 63.8769C27.7797 63.7502 26.3102 63.5212 24.8788 63.1951C26.3114 63.52 27.7797 63.7502 29.2775 63.8769Z" fill="#367371"/>
</svg>
