<?xml version="1.0" encoding="UTF-8"?>
<svg id="Capa_1" data-name="Capa 1" xmlns="http://www.w3.org/2000/svg" viewBox="0 0 152.21 105.06">
  <path d="M148.33.99c.13-.9-2.85-.77-5.18-.13-4.01,1.04-9.05,3.23-12.16,5.3,0,0-.02,0-.02,0-4.27-2.59-11.51-5.56-23.41-6.07-25.36-1.04-47.49,6.85-63.67,22.9-13.72,13.72-21.22,32.74-20.7,49.57.13,4.14.51,7.24,1.16,9.7-4.4-.26-9.19-1.03-13.2-1.03-5.69,0-11.52,1.68-11.13,5.17.26,1.81,4.4,2.98,15.92.26,3.49-.78,6.6-2.07,8.93-2.33,0,0,0,0,0,0,4.01,12.68,15.53,21.23,30.15,20.71,13.97-.46,25.43-10.07,30.82-21.06l1-2s.78-1.55,1.43-2.96c.17-.37.32-.75.46-1.13l3.42-9.39s0,0,0,0h11.3s0,0,0,0l4.08,11.02c.08.16.12.38.12.66,0,.44-.17.84-.51,1.2-.34.36-.77.54-1.29.54s-.78.28-.78.84v.42c0,.52.26.78.78.78h11.8c.56,0,.84-.26.84-.78v-.42c0-.56-.28-.84-.84-.84-1.24,0-2.08-.58-2.52-1.74l-11.2-30.86s0,0,0,0c1.48.41,3.04.63,5.18.86,2.85.23,6.04.25,9.32-.04,0,0,2.41-.15,5.16-.71.04,0,.08-.01.12-.02.5-.1,1.03-.22,1.6-.35,7.38-1.7,14.29-5.31,17.84-11.95,5.05-9.45,1.29-22-9.97-29.51,2.59-2.07,7.64-4.53,10.87-5.56,2.72-.91,4.15-.39,4.28-1.04ZM25.39,72.56c.51-14.76,8.54-30.03,23.68-45.56C64.6,10.96,85.82.99,107.56,2.03c11.13.51,17.73,2.97,21.74,5.3,0,0,0,0,0,0-14.62,9.19-31.19,25.24-44,39.09-19.41,20.96-36.88,34.42-59.01,35.84-.64-2.85-1.03-6.08-.9-9.7ZM55.02,102.58c-12.42.52-24.2-6.21-28.21-18.51.52-.13,1.16-.13,1.68,0,17.47,5.44,25.63,8.54,37.27,8.16,8.1-.32,13.47-4.49,17.28-8.28h.93c-6.05,9.97-16.21,18.15-28.95,18.63ZM92.9,66.46l4.94-13.59s0,0,0,0l4.96,13.59s0,0,0,0h-9.9s0,0,0,0ZM133.06,34.12c-1.99,3.18-4.23,5.8-6.63,7.9-2.54,2.21-5.25,3.84-8.02,4.9-3.33,1.28-6.75,1.75-10.08,1.48-.25-.03-.51-.06-.76-.12-.78-.16-1.64-.42-2.39-.7-.79-.3-1.52-.76-2.1-1.36-.17-.17-.3-.38-.41-.6l-.31-.63-6.22,6.61s0,0,0,0l-9.4,25.76c-.2.55-.49,1.06-.87,1.5-1.02,1.17-2.11,2.18-3.27,3.04-.24.18-.48.36-.73.52-4.24,2.9-9.39,4.12-15.46,4.49-8.41.52-22.52-1.04-35.71-3.62,0,0,0,0,0,0,18.31-1.81,39.56-6.42,63.37-30.77l.02-.02,9.26-10.49c7.82-10.02,17.51-24.76,28.41-33.13,5.57,4.78,7.12,15.78,1.3,25.23Z"/>
  <path d="M151.37,42.02h-8.51c-.56,0-.84.26-.84.78v.42c0,.56.28.84.84.84.92,0,1.69.31,2.31.93s.93,1.39.93,2.3v23c0,1.44-.28,2.78-.84,4.01-.56,1.24-1.31,2.33-2.25,3.27s-2.03,1.68-3.29,2.24c-1.26.56-2.59.86-3.99.9h-.29c-1.4-.08-2.71-.42-3.93-1.02-1.21-.6-2.28-1.37-3.2-2.33-.92-.96-1.65-2.06-2.19-3.3-.54-1.23-.81-2.55-.81-3.95v-19.89s0-.01-.01-.01c-1.44.47-3.76.71-5.46.78l-1.41.08v19.23c0,2.04.38,3.95,1.14,5.75.75,1.8,1.79,3.36,3.11,4.7,1.32,1.34,2.85,2.4,4.61,3.18,1.76.78,3.65,1.18,5.69,1.22h.3c2.04,0,3.96-.4,5.78-1.19,1.82-.8,3.39-1.89,4.73-3.27,1.34-1.37,2.4-2.98,3.17-4.82.78-1.83,1.17-3.77,1.17-5.81v-22.76c0-.91.31-1.68.93-2.3.62-.62,1.39-.93,2.31-.93.55,0,.84-.28.84-.84v-.42c0-.52-.29-.78-.84-.78Z"/>
</svg>