<svg width="660" height="116" viewBox="0 0 660 116" fill="none" xmlns="http://www.w3.org/2000/svg">
<path d="M181.659 4.69953C178.282 1.04573 170.191 0 164.987 0C151.591 0.138592 140.905 6.12325 136.872 8.7313C133.999 5.85866 124.888 0.403177 111.605 0.403177C95.5882 0.403177 80.2265 4.56094 66.566 13.1662C50.8011 12.8891 28.7982 22.9307 14.0918 38.9318C6.53067 47.1339 -0.501183 59.7584 0.0280962 73.8192C0.557375 89.1903 12.6552 95.1749 23.0769 95.3009C27.8909 95.4269 32.6922 95.049 37.3927 94.0032C44.0339 104.939 54.443 110.42 67.5868 110.269C74.6186 110.269 79.8232 107.812 82.4318 105.582C83.2131 104.927 84.133 103.755 83.4778 103.377C83.0745 103.1 82.3058 104.032 81.2598 104.801C78.6512 106.754 73.3206 108.707 67.864 108.707C55.8796 108.581 45.4579 103.1 39.346 93.6126C57.6943 89.3037 78.1346 76.0366 102.494 48.8348C110.824 39.3223 122.279 22.4015 136.746 11.3394C139.354 14.59 141.686 22.4015 134.654 32.9471C133.167 35.1898 131.63 37.2183 130.042 39.02C128.088 41.2752 126.06 43.1777 123.968 44.677C119.683 47.7513 115.159 49.175 110.446 48.6962C109.412 48.5702 108.492 47.7891 107.711 47.3985C106.665 46.8945 105.493 46.6173 104.977 47.3985C104.057 48.5702 105.758 49.616 106.93 50.0065C108.757 50.5357 111.618 50.4097 112.79 50.4097C115.877 50.3341 119.141 49.9057 122.367 49.0742C125.77 48.23 129.134 46.9071 132.222 45.0424C135.965 42.7998 139.304 39.7759 141.799 35.8449C147.798 26.3325 143.753 15.9255 138.296 10.1928C139.846 9.02108 149.638 2.25527 164.987 1.99069C171.111 1.8647 175.673 4.08216 177.878 5.51848C180.613 7.34538 181.256 8.89509 181.911 8.64311C182.957 8.11394 182.957 6.42563 181.659 4.73733V4.69953ZM71.1279 15.4971C77.4919 17.072 83.0997 21.6204 82.4444 29.5579C81.7891 38.5412 74.2406 48.6836 61.6135 59.2418C52.0991 67.1794 42.3326 73.038 34.0028 75.5075C33.2215 58.4354 43.5172 38.7932 58.7403 24.871C62.5208 21.2172 66.8181 18.2186 71.1279 15.4845V15.4971ZM23.455 93.4614C14.0918 93.3354 2.37205 88.3965 2.37205 73.8066C2.37205 63.135 11.9873 49.6034 17.4691 43.6187C30.7389 28.9027 48.5831 15.4845 64.0835 14.8419C61.2102 16.7948 58.3496 19.0123 55.615 21.3558C41.5513 33.9929 30.7389 54.8195 32.0369 76.0492C29.8315 76.4272 27.7522 76.7044 25.7989 76.5532C18.6411 76.3012 15.7678 69.7874 19.0191 63.9287C19.2964 63.2736 19.6744 62.631 19.2964 62.505C18.6411 62.2278 17.8472 63.6642 17.4691 64.1807C14.2178 70.5686 17.4691 77.851 26.8323 78.2415C28.4075 78.2415 30.3608 78.2415 32.1881 78.1155C32.3141 79.7912 32.5662 81.7441 33.0954 83.319C33.7507 86.4437 34.6455 89.0517 36.0947 91.7858C31.7848 92.9575 27.7648 93.4614 23.455 93.4614ZM91.3035 48.3056C73.9759 66.9148 56.9256 84.7553 38.048 91.1306C36.4727 88.2579 35.4394 85.0073 34.6455 81.6181C34.3934 80.4464 34.2674 79.0101 34.1414 77.7123C42.7359 76.1626 53.9263 71.7277 64.6127 63.135C75.6772 54.1517 84.3977 41.5146 84.7883 29.7973C85.0404 21.8597 79.7098 16.1271 73.0686 14.3002C85.0404 7.14379 98.4614 3.11202 112.374 3.11202C123.968 3.11202 132.033 6.63982 135.284 9.62585C120.061 18.8611 104.044 34.3582 91.2909 48.293L91.3035 48.3056Z" fill="#638262"/>
<path d="M152.914 94.4568C151.125 94.4568 149.915 93.6253 149.285 91.9495L132.234 45.0172L130.042 39.02C128.088 41.2753 126.06 43.1777 123.968 44.6771L122.38 49.049L107.005 91.1684C106.64 92.1385 106.048 92.9449 105.178 93.5497C104.309 94.1418 103.351 94.4568 102.318 94.4568C101.498 94.4568 101.108 94.86 101.108 95.6663V96.2837C101.108 97.0271 101.511 97.405 102.318 97.405H112.878C113.634 97.405 114.012 97.0271 114.012 96.2837V95.6663C114.012 94.8474 113.634 94.4568 112.878 94.4568C112.122 94.4568 111.416 94.1796 110.887 93.6253C110.358 93.0835 110.106 92.4661 110.106 91.7606C110.106 91.4834 110.156 91.1684 110.282 90.8156L115.991 75.0539H132.36L138.258 90.9794C138.384 91.2188 138.435 91.5338 138.435 91.937C138.435 92.5669 138.183 93.1465 137.691 93.6757C137.2 94.2048 136.582 94.4568 135.826 94.4568C135.07 94.4568 134.704 94.86 134.704 95.6663V96.2837C134.704 97.0271 135.082 97.405 135.826 97.405H152.902C153.721 97.405 154.111 97.0271 154.111 96.2837V95.6663C154.111 94.8474 153.708 94.4568 152.902 94.4568H152.914ZM131.68 72.7104V72.7986L131.428 72.1057H117.125L116.873 72.7986V72.7104C116.873 72.3073 116.659 72.1183 116.255 72.1183H117.125L124.27 52.4886L123.716 50.9641C123.842 51.2035 124.005 51.3295 124.245 51.3295C124.535 51.3295 124.736 51.1909 124.862 50.9011L124.283 52.4886L131.441 72.1183H132.31C131.894 72.1183 131.693 72.3199 131.693 72.7104H131.68Z" fill="#638262"/>
<path d="M201.696 36.7773H189.384C188.565 36.7773 188.174 37.1427 188.174 37.8987V38.516C188.174 39.3098 188.577 39.7255 189.384 39.7255C190.72 39.7255 191.829 40.1539 192.723 41.0611C193.606 41.943 194.059 43.0644 194.059 44.3873V77.6494C194.059 79.7283 193.643 81.6685 192.849 83.4576C192.03 85.2467 190.947 86.8342 189.598 88.195C188.25 89.5557 186.649 90.6392 184.822 91.433C183.02 92.2519 181.092 92.6803 179.076 92.7307H178.647C176.618 92.6173 174.728 92.1385 172.964 91.2692C171.212 90.3998 169.649 89.2659 168.339 87.8926C167.003 86.5067 165.957 84.9066 165.176 83.1175C164.394 81.3284 164.004 79.4259 164.004 77.41V44.3999C164.004 43.077 164.47 41.9556 165.39 41.0737C166.31 40.1665 167.431 39.7381 168.767 39.7381C169.511 39.7381 169.889 39.3224 169.889 38.5286V37.9112C169.889 37.1553 169.511 36.7899 168.767 36.7899H149.26C148.516 36.7899 148.138 37.1553 148.138 37.9112V38.5286C148.138 39.3224 148.516 39.7381 149.26 39.7381C150.595 39.7381 151.717 40.1665 152.637 41.0737C153.557 41.9556 154.023 43.077 154.023 44.3999V77.662C154.023 80.6102 154.565 83.3947 155.674 85.9775C156.783 88.5856 158.283 90.8534 160.173 92.7937C162.088 94.734 164.319 96.2459 166.839 97.3798C169.385 98.5012 172.132 99.0933 175.068 99.1563H175.497C178.446 99.1563 181.231 98.5768 183.864 97.4176C186.486 96.2585 188.766 94.6836 190.695 92.6929C192.635 90.7022 194.16 88.3714 195.282 85.7129C196.416 83.0545 196.983 80.2574 196.983 77.3092V44.3873C196.983 43.0644 197.411 41.943 198.319 41.0611C199.226 40.1539 200.322 39.7255 201.658 39.7255C202.452 39.7255 202.868 39.3098 202.868 38.516V37.8987C202.868 37.1427 202.452 36.7773 201.658 36.7773H201.696Z" fill="#638262"/>
<path d="M249.608 85.0955H249.079C248.676 85.0955 248.336 85.2719 248.046 85.6247C247.176 87.0106 246.181 88.258 245.046 89.3541C243.925 90.4628 242.715 91.3826 241.417 92.1385C240.119 92.8819 238.796 93.4615 237.435 93.8521C236.074 94.2678 234.776 94.4694 233.566 94.4694H223.006C222.25 94.4694 221.62 94.2174 221.09 93.7261C220.586 93.2347 220.309 92.6173 220.309 91.8614V44.3873C220.309 43.0644 220.763 41.943 221.67 41.0611C222.552 40.1539 223.661 39.7255 224.997 39.7255C225.816 39.7255 226.207 39.3098 226.207 38.516V37.8987C226.207 37.1427 225.803 36.7773 224.997 36.7773H205.59C204.834 36.7773 204.456 37.1427 204.456 37.8987V38.516C204.456 39.3098 204.834 39.7255 205.59 39.7255C206.913 39.7255 208.035 40.1539 208.967 41.0611C209.887 41.943 210.341 43.0644 210.341 44.3873V89.7825C210.341 91.118 209.887 92.2267 208.967 93.1213C208.022 94.0032 206.901 94.4568 205.59 94.4568C204.834 94.4568 204.456 94.86 204.456 95.6663V96.2837C204.456 97.0271 204.834 97.405 205.59 97.405H243.963C244.492 97.405 244.832 97.2034 245.009 96.7877L250.566 86.8217C250.68 86.6579 250.73 86.4563 250.73 86.2295C250.73 85.4735 250.352 85.0955 249.608 85.0955Z" fill="#638262"/>
<path d="M301.578 94.4568C299.789 94.4568 298.579 93.6253 297.949 91.9496L278.202 37.5459C277.963 37.0167 277.585 36.7647 277.068 36.7647H276.287C275.833 36.7647 275.467 37.0167 275.253 37.5459L255.67 91.1684C255.33 92.1385 254.712 92.9449 253.843 93.5497C252.973 94.1418 252.015 94.4568 250.982 94.4568C250.163 94.4568 249.772 94.86 249.772 95.6663V96.2837C249.772 97.0271 250.175 97.405 250.982 97.405H261.555C262.298 97.405 262.676 97.0271 262.676 96.2837V95.6663C262.676 94.8474 262.298 94.4568 261.555 94.4568C260.736 94.4568 260.068 94.1796 259.551 93.6253C259.047 93.0835 258.77 92.4661 258.77 91.7606C258.77 91.4834 258.82 91.1684 258.946 90.8156L264.68 75.0539H281.025L286.935 90.9794C287.049 91.2188 287.099 91.5338 287.099 91.937C287.099 92.5669 286.859 93.1465 286.355 93.6757C285.864 94.2048 285.246 94.4568 284.49 94.4568C283.734 94.4568 283.369 94.86 283.369 95.6663V96.2837C283.369 97.0271 283.747 97.405 284.49 97.405H301.566C302.385 97.405 302.776 97.0271 302.776 96.2837V95.6663C302.776 94.8474 302.372 94.4568 301.566 94.4568H301.578ZM280.357 72.7104V72.7987L280.105 72.1057H265.802L265.55 72.7987V72.7104C265.55 72.3073 265.348 72.1183 264.932 72.1183H265.802L272.947 52.4634L272.405 50.9641C272.519 51.2035 272.695 51.3295 272.909 51.3295C273.199 51.3295 273.401 51.1909 273.527 50.9011L272.947 52.476L280.105 72.1309H280.974C280.571 72.1309 280.357 72.3325 280.357 72.7231V72.7104Z" fill="#638262"/>
<path d="M506.022 13.6073C505.241 13.8718 505.367 12.7001 504.334 10.7472C500.692 4.10741 494.177 2.67109 488.707 2.67109C475.425 2.67109 463.189 12.7001 447.688 29.3564C446.39 40.6831 440.783 51.8713 429.075 62.5555C419.7 71.1482 407.728 78.1786 396.525 80.2574C391.182 84.1632 385.46 87.5524 380.634 90.0219C393.399 96.5357 415.402 105.254 428.294 105.254C437.015 105.254 443.656 103.566 448.092 97.9594C448.356 97.6949 448.747 97.1783 449.264 97.4429C449.654 97.7075 449.654 98.6146 449.264 99.0052C445.874 104.99 440.014 112.02 426.87 112.02C410.336 112.02 395.491 103.428 376.74 91.8488C369.191 95.364 360.206 96.9263 352.91 96.6617C343.534 96.1451 334.939 90.5385 335.595 77.788C328.689 78.6951 323.22 81.8198 322.438 87.5524C322.174 89.2407 322.703 91.3322 323.484 92.8945C323.61 93.4111 324.14 93.8017 323.61 93.9403C323.346 94.0663 322.955 93.6757 322.564 93.2851C320.737 91.4582 320.094 88.7242 320.22 87.0359C320.876 79.8795 327.643 76.2257 335.721 75.4445C336.893 63.7272 346.268 44.4629 364.239 29.2304C385.46 11.4024 410.072 3.71683 428.949 6.84145C439.371 8.40377 444.84 14.9176 446.403 20.9022C462.029 6.96744 476.484 0.982788 489.501 0.982788C497.315 0.982788 505.909 3.71683 507.472 9.5755C507.988 11.6544 507.081 13.3553 506.035 13.6073H506.022ZM368.397 87.0233C359.412 81.9457 351.864 78.3046 343.534 77.6494C341.316 77.3848 339.501 77.5234 337.548 77.5234C336.767 88.195 344.189 94.1923 352.128 94.8348C359.16 95.49 366.192 93.3985 373.098 89.6313C371.8 88.8502 369.847 87.943 368.41 87.0233H368.397ZM428.42 8.65574C409.933 5.9217 389.354 16.0767 369.053 33.1235C352.002 47.3103 339.892 64.4958 337.8 75.3059C339.098 75.1799 340.661 75.1799 342.488 75.3059C353.3 75.8225 364.491 81.4292 371.649 85.335C372.821 85.9901 374.509 86.8973 376.337 87.8044C379.726 85.8515 383.104 83.5081 386.62 80.9C376.198 80.1189 367.477 73.0885 370.351 60.338C372.821 49.1372 381.944 38.0751 392.48 30.9187C400.028 25.7152 410.45 22.452 418.654 22.452C420.998 22.452 422.825 22.9685 423.858 23.4977C424.514 23.7623 425.03 24.6694 424.766 25.06C424.501 25.3246 423.984 24.7954 423.468 24.5434C422.296 24.0269 420.607 23.8883 419.044 23.8883C412.138 23.8883 403.027 28.3106 395.605 33.1362C385.322 40.0406 375.681 50.7121 372.947 60.7286C369.431 73.2271 378.29 79.3377 388.699 79.2117C397.419 72.0553 407.451 60.7286 417.734 49.5278C427.765 38.5916 436.347 29.4824 444.815 22.326C443.769 16.3413 438.174 10.0921 428.407 8.65574H428.42ZM426.202 53.3076C417.343 63.072 408.106 71.4002 399.902 77.6494C409.404 74.6508 419.7 68.2755 427.109 61.5097C436.485 53.043 443.253 44.0597 445.47 31.6998C439.485 38.0751 433.625 44.9795 426.202 53.3076Z" fill="#638262"/>
<path d="M498.512 36.7647C499.318 36.7647 499.721 37.1427 499.721 37.8861V38.4908C499.721 39.2972 499.318 39.7004 498.512 39.7004C497.176 39.7004 496.067 40.1539 495.172 41.0485C494.277 41.943 493.824 43.0518 493.824 44.3873V77.3092C493.824 80.2574 493.257 83.0545 492.135 85.7129C491.014 88.3714 489.476 90.6896 487.548 92.6803C485.607 94.671 483.326 96.2459 480.705 97.4051C478.071 98.5642 475.286 99.1438 472.35 99.1438H471.922C468.973 99.0808 466.226 98.4886 463.693 97.3673C461.147 96.2459 458.929 94.7088 457.026 92.7811C455.123 90.8408 453.611 88.573 452.515 85.9775C451.418 83.3821 450.864 80.6102 450.864 77.662V44.3999C450.864 43.077 450.398 41.9556 449.478 41.0611C448.558 40.1665 447.424 39.713 446.1 39.713C445.344 39.713 444.979 39.3098 444.979 38.5034V37.8987C444.979 37.1553 445.357 36.7773 446.1 36.7773H465.596C466.339 36.7773 466.717 37.1553 466.717 37.8987V38.5034C466.717 39.3098 466.339 39.713 465.596 39.713C464.26 39.713 463.138 40.1665 462.218 41.0611C461.298 41.9556 460.832 43.0644 460.832 44.3999V77.41C460.832 79.4385 461.223 81.341 462.004 83.1301C462.785 84.9192 463.831 86.5067 465.167 87.8926C466.49 89.2785 468.04 90.3999 469.805 91.2692C471.569 92.1386 473.459 92.6299 475.475 92.7433H475.904C477.92 92.6803 479.848 92.252 481.663 91.4456C483.478 90.6392 485.065 89.5557 486.426 88.195C487.788 86.8343 488.871 85.2594 489.678 83.4703C490.484 81.6812 490.888 79.7409 490.888 77.662V44.3999C490.888 43.077 490.434 41.9556 489.539 41.0611C488.644 40.1665 487.535 39.713 486.2 39.713C485.393 39.713 484.99 39.3098 484.99 38.5034V37.8987C484.99 37.1553 485.393 36.7773 486.2 36.7773H498.499L498.512 36.7647Z" fill="#638262"/>
<path d="M534.818 97.9216C535.914 100.517 537.212 102.709 538.712 104.511C540.211 106.3 541.875 107.762 543.689 108.883C545.504 110.004 547.47 110.836 549.587 111.352C551.692 111.869 553.897 112.134 556.216 112.134C557.022 112.134 557.425 112.537 557.425 113.343V113.948C557.425 114.691 557.022 115.069 556.216 115.069C547.142 115.006 539.808 113.683 534.213 111.088C528.605 108.492 524.711 104.246 522.518 98.35L522.695 98.5264C519.632 97.72 516.772 96.3341 514.113 94.3686C511.454 92.4031 509.148 90.0345 507.182 87.2626C505.216 84.4908 503.678 81.3914 502.544 77.9518C501.41 74.5122 500.856 70.8962 500.856 67.0786C500.856 62.6311 501.574 58.4607 503.023 54.5675C504.46 50.6743 506.426 47.2725 508.921 44.3873C511.403 41.5021 514.302 39.2216 517.629 37.5459C520.956 35.8702 524.484 35.0386 528.24 35.0386C531.995 35.0386 535.624 35.8702 538.939 37.5459C542.253 39.2216 545.151 41.5021 547.596 44.3873C550.053 47.2725 551.994 50.6617 553.443 54.5675C554.893 58.4733 555.611 62.6437 555.611 67.0786C555.611 70.8962 555.069 74.4996 554.01 77.9014C552.939 81.3158 551.477 84.3648 549.638 87.0862C547.785 89.8077 545.58 92.1259 543.009 94.0536C540.438 95.9939 537.653 97.3924 534.641 98.2492C534.755 98.2492 534.818 98.161 534.818 97.9846V97.8964V97.9216ZM511.681 70.0268C512.311 73.605 513.306 76.9438 514.667 80.0307C516.028 83.1175 517.604 85.7885 519.393 88.0438C521.182 90.2991 523.123 92.0756 525.202 93.3733C527.282 94.671 529.386 95.3514 531.529 95.4144C534.125 95.3514 536.317 94.5072 538.119 92.8567C539.921 91.2062 541.358 89.2029 542.454 86.8343C543.551 84.4656 544.345 81.9709 544.836 79.3377C545.328 76.7044 545.58 74.3862 545.58 72.3703C545.58 69.6614 545.315 66.9148 544.798 64.143C544.105 60.5648 543.097 57.226 541.761 54.1391C540.438 51.0523 538.876 48.3687 537.086 46.0882C535.297 43.8077 533.369 42.0186 531.327 40.7209C529.273 39.4232 527.181 38.768 525.051 38.768C522.455 38.768 520.25 39.587 518.46 41.2375C516.671 42.888 515.222 44.8913 514.125 47.2599C513.029 49.6286 512.235 52.1359 511.744 54.7943C511.252 57.4528 511.013 59.7962 511.013 61.8121C511.013 63.1476 511.063 64.4957 511.189 65.8817C511.303 67.2676 511.479 68.6535 511.706 70.0394L511.681 70.0268Z" fill="#638262"/>
<path d="M610.303 36.7647C611.11 36.7647 611.513 37.1427 611.513 37.8861V38.4908C611.513 39.2972 611.11 39.7004 610.303 39.7004C608.98 39.7004 607.858 40.1539 606.963 41.0485C606.069 41.943 605.615 43.0518 605.615 44.3873V77.3092C605.615 80.2574 605.048 83.0545 603.926 85.7129C602.805 88.3714 601.267 90.6896 599.339 92.6803C597.399 94.671 595.118 96.2459 592.497 97.4051C589.863 98.5642 587.078 99.1438 584.141 99.1438H583.713C580.764 99.0808 578.03 98.4886 575.484 97.3673C572.938 96.2459 570.72 94.7088 568.818 92.7811C566.915 90.8408 565.403 88.573 564.306 85.9775C563.21 83.3821 562.655 80.6102 562.655 77.662V44.3999C562.655 43.077 562.189 41.9556 561.269 41.0611C560.349 40.1665 559.215 39.713 557.892 39.713C557.136 39.713 556.77 39.3098 556.77 38.5034V37.8987C556.77 37.1553 557.148 36.7773 557.892 36.7773H577.387C578.143 36.7773 578.508 37.1553 578.508 37.8987V38.5034C578.508 39.3098 578.13 39.713 577.387 39.713C576.064 39.713 574.93 40.1665 574.01 41.0611C573.09 41.9556 572.623 43.0644 572.623 44.3999V77.41C572.623 79.4385 573.014 81.341 573.795 83.1301C574.577 84.9192 575.623 86.5067 576.958 87.8926C578.282 89.2785 579.832 90.3999 581.596 91.2692C583.36 92.1386 585.25 92.6299 587.267 92.7433H587.695C589.712 92.6803 591.64 92.252 593.454 91.4456C595.269 90.6392 596.857 89.5557 598.218 88.195C599.579 86.8343 600.663 85.2594 601.469 83.4703C602.276 81.6812 602.679 79.7409 602.679 77.662V44.3999C602.679 43.077 602.225 41.9556 601.343 41.0611C600.448 40.1665 599.339 39.713 598.004 39.713C597.197 39.713 596.794 39.3098 596.794 38.5034V37.8987C596.794 37.1553 597.197 36.7773 598.004 36.7773H610.303V36.7647Z" fill="#638262"/>
<path d="M652.507 36.7647C653.25 36.7647 653.628 37.1427 653.628 37.8861V47.9277C653.628 48.6836 653.25 49.049 652.507 49.049H650.768C650.768 47.7261 650.553 46.4914 650.112 45.37C649.671 44.2487 649.066 43.266 648.298 42.4218C647.516 41.5903 646.609 40.9225 645.563 40.4311C644.517 39.9397 643.396 39.6878 642.186 39.6878H631.613C630.857 39.6878 630.227 39.9397 629.71 40.4311C629.193 40.9225 628.929 41.5399 628.929 42.2958V64.3824C628.929 64.0422 628.727 63.8658 628.324 63.8658H638.115C640.081 63.8658 641.896 63.3744 643.572 62.3917C645.248 61.4089 646.571 60.086 647.554 58.4103L649.281 55.3739C649.457 55.0841 649.797 54.8825 650.327 54.7691C650.553 54.7691 650.73 54.8321 650.843 54.9455L651.36 55.2101C651.763 55.4369 651.965 55.7896 651.965 56.2558C651.965 56.4322 651.902 56.6338 651.788 56.8606L640.346 76.7044C640.119 77.1076 639.766 77.3092 639.312 77.3092C639.023 77.3092 638.821 77.2588 638.708 77.1328L638.191 76.8682C637.851 76.5784 637.674 76.2383 637.674 75.8225C637.674 75.5957 637.699 75.4193 637.762 75.3059L640.888 69.8504C641.115 69.5103 641.228 69.1575 641.228 68.8047C641.228 68.2881 641.039 67.8094 640.661 67.3684C640.283 66.94 639.779 66.7132 639.149 66.7132H628.311C628.714 66.7132 628.916 66.5368 628.916 66.1966V91.8362C628.916 92.5921 629.168 93.2095 629.697 93.7009C630.214 94.1922 630.857 94.4316 631.6 94.4316H642.173C643.383 94.4316 644.681 94.2174 646.067 93.7765C647.453 93.3481 648.802 92.7307 650.1 91.9622C651.398 91.181 652.658 90.1983 653.868 89.0139C655.078 87.8296 656.123 86.5193 656.993 85.0704H658.203C658.946 85.0704 659.324 85.4483 659.324 86.1917C659.324 86.4185 659.261 86.6201 659.148 86.7965L653.603 96.7625C653.427 97.1657 653.086 97.3673 652.557 97.3673H614.172C613.416 97.3673 613.05 96.9893 613.05 96.2459V95.6412C613.05 94.8348 613.428 94.4316 614.172 94.4316H614.436C615.709 94.4316 616.78 94.0033 617.637 93.1339C618.507 92.2645 618.935 91.2314 618.935 90.0093V44.3621C618.935 43.0392 618.469 41.9178 617.549 41.0233C616.629 40.1287 615.495 39.6752 614.172 39.6752C613.416 39.6752 613.05 39.272 613.05 38.4656V37.8609C613.05 37.2309 613.428 36.8529 614.172 36.7395H652.469L652.507 36.7647Z" fill="#638262"/>
</svg>
